<svg width="40" height="42" viewBox="0 0 40 42" fill="none" xmlns="http://www.w3.org/2000/svg">
<path d="M19.9833 3.42105C10.7833 3.42105 3.33334 11.0842 3.33334 20.5263C3.33334 29.9684 10.7833 37.6316 19.9833 37.6316C29.2 37.6316 36.6667 29.9684 36.6667 20.5263C36.6667 11.0842 29.2 3.42105 19.9833 3.42105ZM20 34.2105C12.6333 34.2105 6.66667 28.0868 6.66667 20.5263C6.66667 12.9658 12.6333 6.8421 20 6.8421C27.3667 6.8421 33.3333 12.9658 33.3333 20.5263C33.3333 28.0868 27.3667 34.2105 20 34.2105Z" fill="#247BA0"/>
<path d="M20.8333 11.9737H18.3333V22.2369L27.0833 27.625L28.3333 25.5211L20.8333 20.954V11.9737Z" fill="#247BA0"/>
</svg>
